inDegrees=yes
name=ik_lifting_orientations
DataType=double
version=3
OpenSimVersion=4.5-2024-01-10-34fd6af
endheader
time	pelvis_tilt	pelvis_list	pelvis_rotation	pelvis_tx	pelvis_ty	pelvis_tz	hip_flexion_r	hip_adduction_r	hip_rotation_r	knee_angle_r	knee_angle_r_beta	ankle_angle_r	subtalar_angle_r	mtp_angle_r	hip_flexion_l	hip_adduction_l	hip_rotation_l	knee_angle_l	knee_angle_l_beta	ankle_angle_l	subtalar_angle_l	mtp_angle_l	lumbar_extension	lumbar_bending	lumbar_rotation	arm_flex_r	arm_add_r	arm_rot_r	elbow_flex_r	pro_sup_r	wrist_flex_r	wrist_dev_r	arm_flex_l	arm_add_l	arm_rot_l	elbow_flex_l	pro_sup_l	wrist_flex_l	wrist_dev_l
2.44	2.516806535758936	6.465111397375289	-95.11363483744464	0	0.9399999998679526	0	45.12816368319071	-10.00978109029084	0	60.17001168887335	1.050164814934314	-5.001255261200108	0	0	45.12816368319071	-10.00978109029084	0	60.17001168887335	1.050164814934314	-5.001255261200108	0	0	9.47050689420994	-6.539101638133113	69.43036788717212	70.30184814125815	-36.22465926177316	1.62949099779701	58.48098081278517	0.4934304101262958	0	0	0	-13.04827082029761	0	89.52371893955727	0.4934304101262958	0	0
2.45	2.665130821366496	6.638851400246019	-95.02777899056133	0	0.9399999998679526	0	45.12810341909437	-10.00976496975036	0	60.1699491716718	1.050163723803308	-5.001252560796773	0	0	45.12810341909437	-10.00976496975036	0	60.1699491716718	1.050163723803308	-5.001252560796773	0	0	9.728258683939032	-6.881697744112628	69.8714298386621	71.1389617871458	-36.15077151273241	2.142113818171651	57.84588976577231	0.4932691245579527	0	0	0	-13.04873986460861	0	89.52387456208464	0.4932691245579527	0	0
2.46	2.833280593650395	6.869412163401065	-95.15268496682506	0	0.9399999998679526	0	45.12802911414452	-10.00974513414068	0	60.16987204894364	1.050162377757773	-5.001249240602537	0	0	45.12802911414452	-10.00974513414068	0	60.16987204894364	1.050162377757773	-5.001249240602537	0	0	10.10733554419228	-7.21652150531317	70.38932780911414	72.41546521466321	-35.84749583280359	3.076546969750641	56.41840519548101	0.4930701961733763	0	0	0	-13.04931851023374	0	89.52406650571801	0.4930701961733763	0	0
2.47	2.890216245217621	7.258431259172674	-95.19441246550633	0	0.9399999998679526	0	45.12794014973871	-10.00972157367062	0	60.16977921703833	1.050160757535375	-5.001245304358763	0	0	45.12794014973871	-10.00972157367062	0	60.16977921703833	1.050160757535375	-5.001245304358763	0	0	10.71987137327737	-7.525844796537654	71.00617044923958	74.00154881411697	-35.90833496537905	3.789128485828705	53.86719969644989	0.4928314974519533	0	0	0	-13.05001411212163	0	89.52429682327701	0.4928314974519533	0	0
2.48	2.998731041036957	7.436653575390212	-95.27054989006487	0	0.9399999998679526	0	45.12786050029283	-10.00970042360344	0	60.16969637122189	1.050159311603106	-5.001241770234355	0	0	45.12786050029283	-10.00970042360344	0	60.16969637122189	1.050159311603106	-5.001241770234355	0	0	11.05799400448442	-7.834423993880668	71.42397631074708	75.20988283380218	-35.77411658373861	4.111442010621428	52.50856420404092	0.4926180265612007	0	0	0	-13.05063558871243	0	89.52450279880212	0.4926180265612007	0	0
2.49	3.136827953906112	7.809638842727051	-95.57875613847789	0	0.9399999998679526	0	45.12782330521898	-10.00969064253536	0	60.16965740989973	1.050158631599754	-5.00124013930762	0	0	45.12782330521898	-10.00969064253536	0	60.16965740989973	1.050158631599754	-5.00124013930762	0	0	11.61361394145106	-8.090027887443613	71.82862032473717	75.81981754777571	-35.75597618385626	3.811582607299019	51.72462187881226	0.4925180577063022	0	0	0	-13.05092731596187	0	89.52459925756209	0.4925180577063022	0	0
2.5	3.249698888356348	8.223496409026589	-95.58747547602489	0	0.9399999998679526	0	45.12774577288369	-10.00967018637039	0	60.16957647915845	1.050157219091852	-5.001236727137126	0	0	45.12774577288369	-10.00967018637039	0	60.16957647915845	1.050157219091852	-5.001236727137126	0	0	12.31042614156279	-8.660736854554097	72.75072596238232	75.75872074885734	-36.6934761875983	2.566679056868411	51.90865523957449	0.492309934150386	0	0	0	-13.05153399470327	0	89.52480007350776	0.492309934150386	0	0
2.51	3.349231632160402	8.405686333668026	-95.43696355841128	0	0.9399999998679526	0	45.1276476905954	-10.00964415973772	0	60.1694746955975	1.050155442633589	-5.001232382773909	0	0	45.1276476905954	-10.00964415973772	0	60.1694746955975	1.050155442633589	-5.001232382773909	0	0	12.82541925875883	-9.280043678975153	73.85052602847531	75.74143222279231	-37.57533335108746	1.490792348524129	52.58392710650057	0.4920472012880684	0	0	0	-13.05229844672809	0	89.52505358132426	0.4920472012880684	0	0
2.52	3.298219504416784	8.645242724437185	-95.33705219889053	0	0.9399999998679526	0	45.12759886587786	-10.00963122670488	0	60.1694240096602	1.050154557997099	-5.001230225464235	0	0	45.12759886587786	-10.00963122670488	0	60.1694240096602	1.050154557997099	-5.001230225464235	0	0	13.15498109410301	-9.442727495925565	74.94746201103374	75.81701351024201	-38.05104694276124	1.313964317572954	53.79107633565179	0.4919163795010736	0	0	0	-13.05267915742004	0	89.5251798097119	0.4919163795010736	0	0
2.53	3.233525476110751	9.103535443643185	-95.09176220522234	0	0.9399999998679526	0	45.12754141969192	-10.00961602843365	0	60.16936436035613	1.050153516920346	-5.001227691518525	0	0	45.12754141969192	-10.00961602843365	0	60.16936436035613	1.050153516920346	-5.001227691518525	0	0	13.69541874160716	-9.535022333683958	75.64253661546103	75.97832869654033	-38.34130786953007	1.504085121706976	54.23118141557563	0.4917624296959978	0	0	0	-13.05312722797896	0	89.52532835404953	0.4917624296959978	0	0
2.54	3.200435167163803	9.500041299697982	-94.98271843924864	0	0.9399999998679526	0	45.12751174119025	-10.00960820950939	0	60.16933347448042	1.050152977860123	-5.001226389423105	0	0	45.12751174119025	-10.00960820950939	0	60.16933347448042	1.050152977860123	-5.001226389423105	0	0	14.29322585855309	-9.722562036137457	76.49142956138711	76.26687635090565	-38.89388307537736	1.681735590510848	53.63948323785361	0.4916828168757605	0	0	0	-13.05335911826251	0	89.52540517151388	0.4916828168757605	0	0
2.55	3.225649951156983	9.774941706288224	-94.92696507745427	0	0.9399999998679526	0	45.12744403244614	-10.00959036071909	0	60.16926304463911	1.0501517486275	-5.001223416758972	0	0	45.12744403244614	-10.00959036071909	0	60.16926304463911	1.0501517486275	-5.001223416758972	0	0	14.70130082423786	-10.05255708620535	76.9111384900643	76.80256788255522	-39.42900911884468	1.834108247126668	51.36580568505155	0.491501213679662	0	0	0	-13.05388802497038	0	89.52558039828008	0.491501213679662	0	0
2.56	3.240920690568744	10.04885683054066	-94.8599952029948	0	0.9399999998679526	0	45.12736370960455	-10.00956928502656	0	60.16917928394235	1.050150286727558	-5.001219911201933	0	0	45.12736370960455	-10.00956928502656	0	60.16917928394235	1.050150286727558	-5.001219911201933	0	0	14.98894286876214	-10.39234330898024	77.1785471532049	77.81401586569108	-39.55469431623415	2.246159451982412	49.77154146313134	0.4912855386164832	0	0	0	-13.05451672148478	0	89.52578850058632	0.4912855386164832	0	0
2.57	3.502112955489284	10.26271485542032	-94.8538420207942	0	0.9399999998679526	0	45.12730238034018	-10.00955337834115	0	60.16911478060641	1.050149160931968	-5.001217271942089	0	0	45.12730238034018	-10.00955337834115	0	60.16911478060641	1.050149160931968	-5.001217271942089	0	0	15.47584821848917	-10.94385843144537	77.79509683915693	78.30772052860434	-40.03348015261642	1.986700024000178	48.39587402460529	0.4911203003976131	0	0	0	-13.05499978066748	0	89.52594793698091	0.4911203003976131	0	0
2.58	3.646580452867528	10.57307378554439	-95.21814653098068	0	0.9399999998679526	0	45.12725950950442	-10.00954218470265	0	60.16906997067784	1.050148378851176	-5.001215412821624	0	0	45.12725950950442	-10.00954218470265	0	60.16906997067784	1.050148378851176	-5.001215412821624	0	0	16.04663992183126	-11.24335252008178	78.73186633472578	78.22469540708511	-40.88569596080769	1.29258367221609	47.50105714536827	0.4910050606104041	0	0	0	-13.05533599997213	0	89.52605913048262	0.4910050606104041	0	0
2.59	3.73201233333811	10.86481259017362	-95.55258407667866	0	0.9399999998679526	0	45.12723212605712	-10.00953507659662	0	60.16904122578038	1.050147877158073	-5.001214233744189	0	0	45.12723212605712	-10.00953507659662	0	60.16904122578038	1.050147877158073	-5.001214233744189	0	0	16.52915622363539	-11.2744788702244	79.50784697078039	78.18119465012109	-41.60232912307988	1.11433157447426	46.62901224414204	0.4909313258205203	0	0	0	-13.05555143597753	0	89.52613027630554	0.4909313258205203	0	0
2.6	3.962781567493129	10.97190164871652	-96.38827922915091	0	0.9399999998679526	0	45.12720482208199	-10.00952799119614	0	60.16901256973406	1.050147377015714	-5.001213058659896	0	0	45.12720482208199	-10.00952799119614	0	60.16901256973406	1.050147377015714	-5.001213058659896	0	0	16.79397902378858	-11.21503163941728	80.39652942931491	78.17359848526692	-41.8662492681451	1.227117087156004	45.94598842057548	0.4908578066682665	0	0	0	-13.05576623377362	0	89.52620121406233	0.4908578066682665	0	0
2.61	4.150689903131862	11.02916116810737	-97.01668274072891	0	0.9399999998679526	0	45.12714299709125	-10.00951173683876	0	60.16894844559823	1.050146257838413	-5.001210357281009	0	0	45.12714299709125	-10.00951173683876	0	60.16894844559823	1.050146257838413	-5.001210357281009	0	0	17.14874634251961	-11.42793314484705	81.47496504582561	78.89089422814085	-41.88564943426253	1.577749038078844	45.2510997071366	0.4906920727776446	0	0	0	-13.05624858936799	0	89.52636112872477	0.4906920727776446	0	0
2.62	4.195628771650277	11.20930706499152	-97.39228742831112	0	0.9399999998679526	0	45.12709150803896	-10.00949831784604	0	60.16889467281658	1.050145319326326	-5.001208131040907	0	0	45.12709150803896	-10.00949831784604	0	60.16889467281658	1.050145319326326	-5.001208131040907	0	0	17.68533543488629	-11.67218433757784	82.75821914866029	79.25364580760984	-42.663808678245	1.305801944483264	43.81220553110813	0.4905536717573268	0	0	0	-13.05665233041897	0	89.5264946702255	0.4905536717573268	0	0
2.63	4.154793766287694	11.45296097629174	-97.23871526209133	0	0.9399999998679526	0	45.12701647017406	-10.00947877577509	0	60.16881633194244	1.050143952020133	-5.001204890373292	0	0	45.12701647017406	-10.00947877577509	0	60.16881633194244	1.050143952020133	-5.001204890373292	0	0	18.02131459016588	-11.69896837717621	83.29192441961357	78.91324656247534	-43.45277496628722	0.6939296084936009	43.54014618508796	0.4903519746607364	0	0	0	-13.05724068914429	0	89.52668928535854	0.4903519746607364	0	0
